# Blender v3.2.0 OBJ File: 'LowPolyOrange.blend'
# www.blender.org
mtllib LowPolyOrange.mtl
o Sphere
v 0.000000 1.928172 -0.382683
v 0.000000 1.711400 -0.707107
v 0.000000 1.386976 -0.923880
v 0.000000 1.004293 -1.000000
v 0.000000 0.621609 -0.923880
v 0.000000 0.297186 -0.707107
v 0.000000 0.080413 -0.382683
v 0.270598 1.928172 -0.270598
v 0.500000 1.711400 -0.500000
v 0.653282 1.386976 -0.653281
v 0.707107 1.004293 -0.707107
v 0.653282 0.621609 -0.653282
v 0.500000 0.297186 -0.500000
v 0.270598 0.080413 -0.270598
v 0.382684 1.928172 0.000000
v 0.707107 1.711400 0.000000
v 0.923880 1.386976 0.000000
v 1.000000 1.004293 0.000000
v 0.923880 0.621609 0.000000
v 0.707107 0.297186 0.000000
v 0.382684 0.080413 0.000000
v 0.270598 1.928172 0.270598
v 0.500000 1.711400 0.500000
v 0.653282 1.386976 0.653282
v 0.707107 1.004293 0.707107
v 0.653282 0.621609 0.653282
v 0.500000 0.297186 0.500000
v 0.270598 0.080413 0.270598
v 0.000000 1.928172 0.382684
v 0.000000 1.711400 0.707107
v 0.000000 1.386976 0.923880
v 0.000000 1.004293 1.000000
v 0.000000 0.621609 0.923880
v 0.000000 0.297186 0.707107
v 0.000000 0.080413 0.382684
v -0.000000 2.004293 0.000000
v -0.270598 1.928172 0.270598
v -0.500000 1.711400 0.500000
v -0.653281 1.386976 0.653282
v -0.707107 1.004293 0.707107
v -0.653282 0.621609 0.653282
v -0.500000 0.297186 0.500000
v -0.270598 0.080413 0.270598
v -0.382684 1.928172 0.000000
v -0.707107 1.711400 0.000000
v -0.923879 1.386976 0.000000
v -1.000000 1.004293 0.000000
v -0.923880 0.621609 0.000000
v -0.707107 0.297186 0.000000
v -0.382684 0.080413 0.000000
v 0.000000 0.004293 0.000000
v -0.270598 1.928172 -0.270598
v -0.500000 1.711400 -0.500000
v -0.653281 1.386976 -0.653281
v -0.707107 1.004293 -0.707107
v -0.653282 0.621609 -0.653281
v -0.500000 0.297186 -0.500000
v -0.270598 0.080413 -0.270598
v 0.099891 1.987378 -0.040725
v 0.099958 1.987368 0.041404
v 0.915527 1.862487 -0.159217
v 0.915786 1.862448 0.158538
v 0.099924 1.987373 0.000340
v 1.168157 1.823804 -0.000549
v 0.453521 1.933230 -0.158944
v 0.453780 1.933190 0.159035
v 0.578733 1.914057 -0.000059
v 0.691153 1.896844 0.192602
v 0.902368 1.864502 -0.000328
v 0.690839 1.896892 -0.192906
v 0.099891 1.987378 -0.040725
v 0.099958 1.987368 0.041404
v 0.099924 1.987373 0.000340
v 0.000600 2.002582 0.000422
vt 0.370903 0.930377
vt 0.341165 0.989852
vt 0.311428 0.930377
vt 0.341165 0.514054
vt 0.370903 0.573529
vt 0.311428 0.573529
vt 0.370903 0.633004
vt 0.370903 0.692478
vt 0.311428 0.692478
vt 0.311428 0.633004
vt 0.370903 0.751953
vt 0.370903 0.811428
vt 0.311428 0.811428
vt 0.311428 0.751953
vt 0.370903 0.870903
vt 0.311428 0.870903
vt 0.251953 0.811428
vt 0.251953 0.751953
vt 0.251953 0.930377
vt 0.251953 0.870903
vt 0.251953 0.633004
vt 0.251953 0.573529
vt 0.251953 0.692478
vt 0.281690 0.989852
vt 0.281690 0.514054
vt 0.192478 0.633004
vt 0.192478 0.573529
vt 0.192478 0.751953
vt 0.192478 0.692478
vt 0.192478 0.870903
vt 0.192478 0.811428
vt 0.222216 0.989852
vt 0.192478 0.930377
vt 0.222216 0.514054
vt 0.133004 0.870903
vt 0.133004 0.811428
vt 0.162741 0.989852
vt 0.133004 0.930377
vt 0.162741 0.514054
vt 0.133004 0.573529
vt 0.133004 0.692478
vt 0.133004 0.633004
vt 0.133004 0.751953
vt 0.103266 0.514054
vt 0.073529 0.573529
vt 0.073529 0.692478
vt 0.073529 0.633004
vt 0.073529 0.811428
vt 0.073529 0.751953
vt 0.073529 0.930377
vt 0.073529 0.870903
vt 0.103266 0.989852
vt 0.014054 0.930377
vt 0.014054 0.870903
vt 0.014054 0.633004
vt 0.014054 0.573529
vt 0.014054 0.751953
vt 0.014054 0.692478
vt 0.014054 0.811428
vt 0.043792 0.989852
vt 0.043792 0.514054
vt 0.489852 0.573529
vt 0.489852 0.633004
vt 0.430377 0.633004
vt 0.430377 0.573529
vt 0.489852 0.692478
vt 0.489852 0.751953
vt 0.430377 0.751953
vt 0.430377 0.692478
vt 0.489852 0.811428
vt 0.489852 0.870903
vt 0.430377 0.870903
vt 0.430377 0.811428
vt 0.489852 0.930377
vt 0.460115 0.989852
vt 0.430377 0.930377
vt 0.460115 0.514054
vt 0.400640 0.989852
vt 0.400640 0.514054
vt 0.861841 0.325659
vt 0.852736 0.173623
vt 0.925868 0.270737
vt 0.963233 0.425439
vt 0.709679 0.318991
vt 0.807953 0.390557
vt 0.540490 0.039895
vt 0.555728 0.024411
vt 0.738382 0.204161
vt 0.631667 0.217156
vt 0.570967 0.008926
vt 0.749665 0.097252
vt 0.711464 0.386962
vt 0.700497 0.405716
vt 0.654606 0.378882
vt 0.689531 0.424471
vn 0.0805 0.9776 -0.1945
vn 0.0805 -0.9776 -0.1945
vn 0.3256 -0.5253 -0.7862
vn 0.3764 0.1807 -0.9087
vn 0.2243 0.8103 -0.5414
vn 0.2243 -0.8103 -0.5414
vn 0.3764 -0.1807 -0.9087
vn 0.3256 0.5253 -0.7862
vn 0.9087 0.1807 -0.3764
vn 0.5414 0.8103 -0.2243
vn 0.5414 -0.8103 -0.2243
vn 0.9087 -0.1807 -0.3764
vn 0.7862 0.5253 -0.3256
vn 0.1945 0.9776 -0.0805
vn 0.1945 -0.9776 -0.0805
vn 0.7862 -0.5253 -0.3256
vn 0.5414 -0.8103 0.2243
vn 0.9087 -0.1807 0.3764
vn 0.7862 0.5253 0.3256
vn 0.1945 0.9776 0.0805
vn 0.1945 -0.9776 0.0805
vn 0.7862 -0.5253 0.3256
vn 0.9087 0.1807 0.3764
vn 0.5414 0.8103 0.2243
vn 0.3256 0.5253 0.7862
vn 0.0805 0.9776 0.1945
vn 0.0805 -0.9776 0.1945
vn 0.3256 -0.5253 0.7862
vn 0.3764 0.1807 0.9087
vn 0.2243 0.8103 0.5414
vn 0.2243 -0.8103 0.5414
vn 0.3764 -0.1807 0.9087
vn -0.0805 -0.9776 0.1945
vn -0.3256 -0.5253 0.7862
vn -0.3764 0.1807 0.9087
vn -0.2243 0.8103 0.5414
vn -0.2243 -0.8103 0.5414
vn -0.3764 -0.1807 0.9087
vn -0.3256 0.5253 0.7862
vn -0.0805 0.9776 0.1945
vn -0.5414 0.8103 0.2243
vn -0.5414 -0.8103 0.2243
vn -0.9087 -0.1807 0.3764
vn -0.7862 0.5253 0.3256
vn -0.1945 0.9776 0.0805
vn -0.1945 -0.9776 0.0805
vn -0.7862 -0.5253 0.3256
vn -0.9087 0.1807 0.3764
vn -0.5414 -0.8103 -0.2243
vn -0.9087 -0.1807 -0.3764
vn -0.7862 0.5253 -0.3256
vn -0.1945 0.9776 -0.0805
vn -0.1945 -0.9776 -0.0805
vn -0.7862 -0.5253 -0.3256
vn -0.9087 0.1807 -0.3764
vn -0.5414 0.8103 -0.2243
vn -0.0805 0.9776 -0.1945
vn -0.0805 -0.9776 -0.1945
vn -0.3256 -0.5253 -0.7862
vn -0.3764 0.1807 -0.9087
vn -0.2243 0.8103 -0.5414
vn -0.2243 -0.8103 -0.5414
vn -0.3764 -0.1807 -0.9087
vn -0.3256 0.5253 -0.7862
vn 0.1514 0.9885 -0.0000
vn -0.1514 -0.9885 0.0000
usemtl None
s off
f 1/1/1 36/2/1 8/3/1
f 51/4/2 7/5/2 14/6/2
f 6/7/3 5/8/3 12/9/3 13/10/3
f 4/11/4 3/12/4 10/13/4 11/14/4
f 2/15/5 1/1/5 8/3/5 9/16/5
f 7/5/6 6/7/6 13/10/6 14/6/6
f 5/8/7 4/11/7 11/14/7 12/9/7
f 3/12/8 2/15/8 9/16/8 10/13/8
f 11/14/9 10/13/9 17/17/9 18/18/9
f 9/16/10 8/3/10 15/19/10 16/20/10
f 14/6/11 13/10/11 20/21/11 21/22/11
f 12/9/12 11/14/12 18/18/12 19/23/12
f 10/13/13 9/16/13 16/20/13 17/17/13
f 8/3/14 36/24/14 15/19/14
f 51/25/15 14/6/15 21/22/15
f 13/10/16 12/9/16 19/23/16 20/21/16
f 21/22/17 20/21/17 27/26/17 28/27/17
f 19/23/18 18/18/18 25/28/18 26/29/18
f 17/17/19 16/20/19 23/30/19 24/31/19
f 15/19/20 36/32/20 22/33/20
f 51/34/21 21/22/21 28/27/21
f 20/21/22 19/23/22 26/29/22 27/26/22
f 18/18/23 17/17/23 24/31/23 25/28/23
f 16/20/24 15/19/24 22/33/24 23/30/24
f 24/31/25 23/30/25 30/35/25 31/36/25
f 22/33/26 36/37/26 29/38/26
f 51/39/27 28/27/27 35/40/27
f 27/26/28 26/29/28 33/41/28 34/42/28
f 25/28/29 24/31/29 31/36/29 32/43/29
f 23/30/30 22/33/30 29/38/30 30/35/30
f 28/27/31 27/26/31 34/42/31 35/40/31
f 26/29/32 25/28/32 32/43/32 33/41/32
f 51/44/33 35/40/33 43/45/33
f 34/42/34 33/41/34 41/46/34 42/47/34
f 32/43/35 31/36/35 39/48/35 40/49/35
f 30/35/36 29/38/36 37/50/36 38/51/36
f 35/40/37 34/42/37 42/47/37 43/45/37
f 33/41/38 32/43/38 40/49/38 41/46/38
f 31/36/39 30/35/39 38/51/39 39/48/39
f 29/38/40 36/52/40 37/50/40
f 38/51/41 37/50/41 44/53/41 45/54/41
f 43/45/42 42/47/42 49/55/42 50/56/42
f 41/46/43 40/49/43 47/57/43 48/58/43
f 39/48/44 38/51/44 45/54/44 46/59/44
f 37/50/45 36/60/45 44/53/45
f 51/61/46 43/45/46 50/56/46
f 42/47/47 41/46/47 48/58/47 49/55/47
f 40/49/48 39/48/48 46/59/48 47/57/48
f 50/62/49 49/63/49 57/64/49 58/65/49
f 48/66/50 47/67/50 55/68/50 56/69/50
f 46/70/51 45/71/51 53/72/51 54/73/51
f 44/74/52 36/75/52 52/76/52
f 51/77/53 50/62/53 58/65/53
f 49/63/54 48/66/54 56/69/54 57/64/54
f 47/67/55 46/70/55 54/73/55 55/68/55
f 45/71/56 44/74/56 52/76/56 53/72/56
f 52/76/57 36/78/57 1/1/57
f 51/79/58 58/65/58 7/5/58
f 57/64/59 56/69/59 5/8/59 6/7/59
f 55/68/60 54/73/60 3/12/60 4/11/60
f 53/72/61 52/76/61 1/1/61 2/15/61
f 58/65/62 57/64/62 6/7/62 7/5/62
f 56/69/63 55/68/63 4/11/63 5/8/63
f 54/73/64 53/72/64 2/15/64 3/12/64
f 69/80/65 68/81/65 62/82/65 64/83/65
f 70/84/65 69/80/65 64/83/65 61/85/65
f 59/86/65 63/87/65 67/88/65 65/89/65
f 63/87/65 60/90/65 66/91/65 67/88/65
f 65/89/65 67/88/65 69/80/65 70/84/65
f 67/88/65 66/91/65 68/81/65 69/80/65
f 71/92/66 73/93/66 74/94/66
f 73/93/66 72/95/66 74/94/66
