# Blender v3.2.1 OBJ File: 'LowPolyMelon.blend'
# www.blender.org
mtllib LowPolyMelon.mtl
o Icosphere
v -1.259207 0.952105 0.000000
v -0.581252 0.230507 0.525725
v -0.584219 1.230498 0.850649
v -0.586048 1.848533 0.000000
v -0.584219 1.230498 -0.850649
v -0.581252 0.230507 -0.525725
v 0.584831 0.681188 0.850649
v 0.581863 1.681179 0.525725
v 0.581863 1.681179 -0.525725
v 0.584831 0.681188 -0.850649
v 0.586659 0.063153 0.000000
v 1.208002 0.959427 0.000000
v -1.110438 1.115003 0.499995
v -1.108694 0.527228 0.309011
v -0.685100 0.690939 0.809012
v -0.683353 0.103163 0.000000
v -1.108694 0.527228 -0.309011
v -1.111513 1.478276 0.000000
v -0.687920 1.641993 0.499997
v -1.110438 1.115003 -0.499995
v -0.687920 1.641993 -0.499997
v -0.685100 0.690939 -0.809012
v 0.003128 0.004789 0.309013
v 0.003128 0.004789 -0.309013
v 0.000306 0.955843 1.000000
v 0.002050 0.368060 0.809017
v -0.002516 1.906897 0.309013
v -0.001438 1.543626 0.809017
v -0.001438 1.543626 -0.809017
v -0.002516 1.906897 -0.309013
v 0.002050 0.368060 -0.809017
v 0.000306 0.955843 -1.000000
v 0.688531 0.269693 0.499997
v 0.685711 1.220747 0.809012
v 0.683965 1.808523 0.000000
v 0.685711 1.220747 -0.809012
v 0.688531 0.269693 -0.499997
v 1.111050 0.796683 0.499995
v 1.112124 0.433410 0.000000
v 1.109305 1.384459 0.309011
v 1.109305 1.384459 -0.309011
v 1.111050 0.796683 -0.499995
v -0.581252 0.230507 0.525725
v -0.584219 1.230498 0.850649
v -0.586048 1.848533 0.000000
v -0.584219 1.230498 -0.850649
v -0.581252 0.230507 -0.525725
v 0.584831 0.681188 0.850649
v 0.581863 1.681179 0.525725
v 0.581863 1.681179 -0.525725
v 0.584831 0.681188 -0.850649
v 0.586659 0.063153 0.000000
v -1.110438 1.115003 0.499995
v -1.108694 0.527228 0.309011
v -0.685100 0.690939 0.809012
v -0.683353 0.103163 0.000000
v -1.108694 0.527228 -0.309011
v -1.111513 1.478276 0.000000
v -0.687920 1.641993 0.499997
v -1.110438 1.115003 -0.499995
v -0.687920 1.641993 -0.499997
v -0.685100 0.690939 -0.809012
v 0.003128 0.004789 0.309013
v 0.003128 0.004789 -0.309013
v 0.000306 0.955843 1.000000
v 0.002050 0.368060 0.809017
v -0.002516 1.906897 0.309013
v -0.001438 1.543626 0.809017
v -0.001438 1.543626 -0.809017
v -0.002516 1.906897 -0.309013
v 0.002050 0.368060 -0.809017
v 0.000306 0.955843 -1.000000
v 0.688531 0.269693 0.499997
v 0.685711 1.220747 0.809012
v 0.683965 1.808523 0.000000
v 0.685711 1.220747 -0.809012
v 0.688531 0.269693 -0.499997
v 1.111050 0.796683 0.499995
v 1.112124 0.433410 0.000000
v 1.109305 1.384459 0.309011
v 1.109305 1.384459 -0.309011
v 1.111050 0.796683 -0.499995
v -1.207659 1.033487 0.249998
v -0.844973 0.378867 0.417368
v -0.634660 0.960718 0.829830
v -0.632302 0.166835 0.262863
v -0.844973 0.378867 -0.417368
v -1.208196 1.215123 0.000000
v -0.636984 1.745263 0.249998
v -1.207659 1.033487 -0.249998
v -0.636070 1.436245 -0.675323
v -0.633176 0.460723 -0.667368
v -0.289062 0.117648 0.417369
v 0.294894 0.033971 -0.154506
v -0.291957 1.093170 0.925325
v 0.293440 0.524624 0.829833
v -0.294282 1.877715 0.154506
v 0.290212 1.612403 0.667371
v -0.292829 1.387062 -0.829833
v 0.289673 1.794038 -0.417369
v -0.289601 0.299283 -0.667371
v 0.292568 0.818516 -0.925325
v 0.636681 0.475441 0.675323
v 0.633787 1.450963 0.667368
v 0.632914 1.744851 -0.262863
v 0.635271 0.950968 -0.829830
v 0.637595 0.166423 -0.249998
v 0.847940 0.738936 0.675322
v 1.204375 0.696550 0.000000
v 0.845584 1.532819 0.417368
v 0.845584 1.532819 -0.417368
v 0.847940 0.738936 -0.675322
v -0.847329 1.172750 0.675322
v -1.206787 0.739599 0.154506
v -0.633176 0.460723 0.667368
v -0.632302 0.166835 -0.262863
v -1.206787 0.739599 -0.154506
v -0.848780 1.663404 0.000000
v -0.636070 1.436245 0.675323
v -0.847329 1.172750 -0.675322
v -0.636984 1.745263 -0.249998
v -0.634660 0.960718 -0.829830
v 0.294894 0.033971 0.154506
v -0.289062 0.117648 -0.417369
v 0.292568 0.818516 0.925325
v -0.289601 0.299283 0.667371
v 0.289673 1.794038 0.417369
v -0.292829 1.387062 0.829833
v 0.290212 1.612403 -0.667371
v -0.294282 1.877715 -0.154506
v 0.293440 0.524624 -0.829833
v -0.291957 1.093170 -0.925325
v 0.637595 0.166423 0.249998
v 0.635271 0.950968 0.829830
v 0.632914 1.744851 0.262863
v 0.633787 1.450963 -0.667368
v 0.636681 0.475441 -0.675323
v 1.203837 0.878186 0.249998
v 0.849392 0.248282 0.000000
v 1.202965 1.172074 0.154506
v 1.202965 1.172074 -0.154506
v 1.203837 0.878186 -0.249998
v 1.111587 0.615047 -0.249998
v 0.900328 0.351552 -0.249998
v 0.899791 0.533188 -0.499996
v 1.110178 1.090571 -0.404503
v 0.898380 1.008715 -0.654503
v 0.897508 1.302603 -0.559012
v 1.109305 1.384459 0.000000
v 0.896635 1.596491 -0.154506
v 0.896635 1.596491 0.154506
v 1.110178 1.090571 0.404503
v 0.897508 1.302603 0.559012
v 0.898380 1.008715 0.654503
v 1.111587 0.615047 0.249998
v 0.899791 0.533188 0.499996
v 0.900328 0.351552 0.249998
v 0.345830 0.137241 -0.404505
v 0.002589 0.186425 -0.559015
v 0.345291 0.318876 -0.654507
v 0.343008 1.088295 -0.904506
v -0.000566 1.249735 -0.904508
v 0.342136 1.382186 -0.809014
v 0.340724 1.857710 -0.154506
v -0.002516 1.906897 0.000000
v 0.340724 1.857710 0.154506
v 0.342136 1.382186 0.809014
v -0.000566 1.249735 0.904508
v 0.343008 1.088295 0.904506
v 0.345291 0.318876 0.654507
v 0.002589 0.186425 0.559015
v 0.345830 0.137241 0.404505
v 0.001178 0.661952 -0.904508
v -0.341525 0.529500 -0.809014
v -0.342397 0.823391 -0.904506
v -0.001978 1.725261 -0.559015
v -0.344679 1.592810 -0.654507
v -0.345218 1.774445 -0.404505
v -0.001978 1.725261 0.559015
v -0.345218 1.774445 0.404505
v -0.344679 1.592810 0.654507
v 0.001178 0.661952 0.904508
v -0.342397 0.823391 0.904506
v -0.341525 0.529500 0.809014
v 0.003128 0.004789 0.000000
v -0.340113 0.053976 0.154506
v -0.340113 0.053976 -0.154506
v -0.896897 0.609083 -0.559012
v -1.109566 0.821115 -0.404503
v -0.897769 0.902971 -0.654503
v -0.899179 1.378498 -0.499996
v -1.110976 1.296639 -0.249998
v -0.899716 1.560135 -0.249998
v -0.899716 1.560135 0.249998
v -1.110976 1.296639 0.249998
v -0.899179 1.378498 0.499996
v -0.896023 0.315195 -0.154506
v -0.896023 0.315195 0.154506
v -1.108694 0.527228 0.000000
v -0.897769 0.902971 0.654503
v -1.109566 0.821115 0.404503
v -0.896897 0.609083 0.559012
v -0.581252 0.230507 0.525725
v -0.584219 1.230498 0.850649
v -0.586048 1.848533 0.000000
v -0.584219 1.230498 -0.850649
v -0.581252 0.230507 -0.525725
v 0.584831 0.681188 0.850649
v 0.581863 1.681179 0.525725
v 0.581863 1.681179 -0.525725
v 0.584831 0.681188 -0.850649
v 0.586659 0.063153 0.000000
v -1.110438 1.115003 0.499995
v -1.108694 0.527228 0.309011
v -0.685100 0.690939 0.809012
v -0.683353 0.103163 0.000000
v -1.108694 0.527228 -0.309011
v -1.111513 1.478276 0.000000
v -0.687920 1.641993 0.499997
v -1.110438 1.115003 -0.499995
v -0.687920 1.641993 -0.499997
v -0.685100 0.690939 -0.809012
v 0.003128 0.004789 0.309013
v 0.003128 0.004789 -0.309013
v 0.000306 0.955843 1.000000
v 0.002050 0.368060 0.809017
v -0.002516 1.906897 0.309013
v -0.001438 1.543626 0.809017
v -0.001438 1.543626 -0.809017
v -0.002516 1.906897 -0.309013
v 0.002050 0.368060 -0.809017
v 0.000306 0.955843 -1.000000
v 0.688531 0.269693 0.499997
v 0.685711 1.220747 0.809012
v 0.683965 1.808523 0.000000
v 0.685711 1.220747 -0.809012
v 0.688531 0.269693 -0.499997
v 1.111050 0.796683 0.499995
v 1.112124 0.433410 0.000000
v 1.109305 1.384459 0.309011
v 1.109305 1.384459 -0.309011
v 1.111050 0.796683 -0.499995
vt 0.502653 0.099229
vt 0.437934 0.067052
vt 0.410991 0.124889
vt 0.243138 0.218286
vt 0.307471 0.147766
vt 0.360975 0.191084
vt 0.505973 0.146694
vt 0.596539 0.124275
vt 0.560565 0.066516
vt 0.279022 0.311447
vt 0.196301 0.321289
vt 0.182305 0.282913
vt 0.152260 0.395289
vt 0.510581 0.366199
vt 0.428197 0.346188
vt 0.459984 0.441608
vt 0.814938 0.322487
vt 0.742176 0.324427
vt 0.800898 0.416662
vt 0.731009 0.217883
vt 0.783451 0.229345
vt 0.795374 0.331714
vt 0.179494 0.330371
vt 0.211196 0.414053
vt 0.559456 0.442118
vt 0.853400 0.398041
vt 0.684387 0.312124
vt 0.122021 0.660016
vt 0.174982 0.677824
vt 0.197117 0.753336
vt 0.323119 0.668802
vt 0.259774 0.681883
vt 0.350955 0.745062
vt 0.685313 0.672867
vt 0.593666 0.686447
vt 0.650279 0.749028
vt 0.859197 0.668158
vt 0.831762 0.687093
vt 0.780226 0.761224
vt 0.471862 0.657772
vt 0.599970 0.681349
vt 0.474812 0.765948
vt 0.477526 0.865477
vt 0.594999 0.859079
vt 0.483044 0.896227
vt 0.597644 0.785968
vt 0.721817 0.703774
vt 0.794418 0.684952
vt 0.711363 0.783184
vt 0.702140 0.853244
vt 0.654018 0.841632
vt 0.592920 0.889250
vt 0.757964 0.774132
vt 0.807628 0.703749
vt 0.743214 0.687486
vt 0.708692 0.768495
vt 0.612311 0.831568
vt 0.496415 0.829777
vt 0.553331 0.867884
vt 0.555496 0.762069
vt 0.504481 0.699663
vt 0.414597 0.684368
vt 0.445980 0.760576
vt 0.381229 0.827998
vt 0.330362 0.836550
vt 0.431621 0.865883
vt 0.286264 0.762689
vt 0.189782 0.696335
vt 0.158017 0.679309
vt 0.228378 0.766783
vt 0.271980 0.846366
vt 0.369438 0.855427
vt 0.381421 0.885701
vt 0.254508 0.776728
vt 0.234734 0.697916
vt 0.349560 0.678477
vt 0.357358 0.782544
vt 0.633312 0.415369
vt 0.678504 0.562633
vt 0.552895 0.536107
vt 0.751863 0.430745
vt 0.859245 0.444672
vt 0.859221 0.559626
vt 0.792471 0.570565
vt 0.895329 0.480407
vt 0.850662 0.594157
vt 0.878085 0.570015
vt 0.837838 0.494349
vt 0.787497 0.506557
vt 0.736124 0.590170
vt 0.797082 0.600444
vt 0.608827 0.518808
vt 0.557674 0.607467
vt 0.645802 0.593283
vt 0.508720 0.518092
vt 0.409144 0.517379
vt 0.367465 0.590744
vt 0.455753 0.606496
vt 0.225435 0.502736
vt 0.208446 0.594985
vt 0.274416 0.586005
vt 0.168779 0.490022
vt 0.104469 0.475590
vt 0.112839 0.563545
vt 0.147821 0.587763
vt 0.116765 0.440845
vt 0.173884 0.565315
vt 0.119468 0.553571
vt 0.212081 0.428153
vt 0.318516 0.413981
vt 0.394575 0.534899
vt 0.275640 0.559288
vt 0.878624 0.463864
vt 0.843728 0.336240
vt 0.829883 0.239493
vt 0.821959 0.283493
vt 0.863169 0.362025
vt 0.694709 0.512919
vt 0.730387 0.414297
vt 0.675851 0.326196
vt 0.591509 0.346610
vt 0.641816 0.424005
vt 0.320398 0.510305
vt 0.376576 0.422775
vt 0.343094 0.325516
vt 0.272816 0.323492
vt 0.285441 0.412353
vt 0.110157 0.459516
vt 0.134913 0.359858
vt 0.166531 0.239661
vt 0.202417 0.229648
vt 0.143039 0.334630
vt 0.475254 0.414672
vt 0.403319 0.284747
vt 0.483311 0.162843
vt 0.608675 0.190700
vt 0.555808 0.284892
vt 0.625055 0.082686
vt 0.728371 0.161780
vt 0.675277 0.146769
vt 0.658641 0.124759
vt 0.687965 0.161493
vt 0.751536 0.242098
vt 0.754739 0.198193
vt 0.681620 0.247766
vt 0.594724 0.182148
vt 0.508746 0.201194
vt 0.509689 0.285986
vt 0.592892 0.264139
vt 0.424965 0.264072
vt 0.418770 0.182461
vt 0.322138 0.162342
vt 0.258924 0.242189
vt 0.333110 0.247778
vt 0.558733 0.120192
vt 0.420580 0.120665
vt 0.365797 0.083831
vt 0.494979 0.065261
vt 0.248617 0.198874
vt 0.342458 0.125801
vt 0.264751 0.162851
vt 0.488447 0.885336
vn -0.9714 -0.0760 0.2250
vn -0.5578 -0.7753 0.2961
vn -0.9722 0.1885 0.1391
vn -0.9722 0.1885 -0.1391
vn -0.9714 -0.0760 -0.2250
vn -0.2563 -0.9269 0.2743
vn -0.2590 -0.0261 0.9655
vn -0.2617 0.9097 0.3224
vn -0.2608 0.5872 -0.7663
vn -0.2574 -0.5478 -0.7960
vn -0.0942 -0.8055 0.5850
vn -0.0975 0.3073 0.9466
vn -0.0995 0.9950 0.0000
vn -0.0975 0.3073 -0.9466
vn -0.0942 -0.8055 -0.5850
vn 0.5615 -0.4502 0.6943
vn 0.5586 0.5224 0.6443
vn 0.5578 0.7753 -0.2961
vn 0.5603 -0.0409 -0.8273
vn 0.5625 -0.7983 -0.2152
vn 0.9171 -0.3215 -0.2356
vn 0.7098 -0.5691 -0.4150
vn 0.5615 -0.4502 -0.6943
vn 0.9158 0.1266 -0.3812
vn 0.7075 0.2203 -0.6715
vn 0.5586 0.5224 -0.6443
vn 0.9150 0.4035 0.0000
vn 0.7060 0.7082 0.0000
vn 0.5578 0.7753 0.2961
vn 0.9158 0.1266 0.3812
vn 0.7075 0.2203 0.6715
vn 0.5603 -0.0409 0.8273
vn 0.9171 -0.3215 0.2356
vn 0.7098 -0.5691 0.4150
vn 0.5625 -0.7983 0.2152
vn 0.2617 -0.9097 -0.3224
vn 0.1472 -0.8001 -0.5816
vn 0.2608 -0.5872 -0.7663
vn 0.2590 0.0261 -0.9655
vn 0.1439 0.3062 -0.9410
vn 0.2574 0.5478 -0.7960
vn 0.2563 0.9269 -0.2743
vn 0.1419 0.9899 0.0000
vn 0.2563 0.9269 0.2743
vn 0.2574 0.5478 0.7960
vn 0.1439 0.3062 0.9410
vn 0.2590 0.0261 0.9655
vn 0.2608 -0.5872 0.7663
vn 0.1472 -0.8001 0.5816
vn 0.2617 -0.9097 0.3224
vn 0.0975 -0.3073 -0.9466
vn -0.1439 -0.3062 -0.9410
vn -0.2590 -0.0261 -0.9655
vn 0.0942 0.8055 -0.5850
vn -0.1472 0.8001 -0.5816
vn -0.2617 0.9097 -0.3224
vn 0.0942 0.8055 0.5850
vn -0.1472 0.8001 0.5816
vn -0.2608 0.5872 0.7663
vn 0.0975 -0.3073 0.9466
vn -0.1439 -0.3062 0.9410
vn -0.2574 -0.5478 0.7960
vn 0.0995 -0.9950 0.0000
vn -0.1419 -0.9899 0.0000
vn -0.2563 -0.9269 -0.2743
vn -0.5586 -0.5224 -0.6443
vn -0.7075 -0.2203 -0.6715
vn -0.5603 0.0409 -0.8273
vn -0.5615 0.4502 -0.6943
vn -0.7098 0.5691 -0.4150
vn -0.5625 0.7983 -0.2152
vn -0.5625 0.7983 0.2152
vn -0.7098 0.5691 0.4150
vn -0.5615 0.4502 0.6943
vn -0.5578 -0.7753 -0.2961
vn -0.7060 -0.7082 0.0000
vn -0.9078 -0.4193 0.0000
vn -0.5603 0.0409 0.8273
vn -0.7075 -0.2203 0.6715
vn -0.5586 -0.5224 0.6443
vn -0.9709 -0.2395 0.0000
vn 0.9998 -0.0138 0.0122
vn 0.9998 0.0094 0.0197
vn 0.9997 0.0237 0.0000
vn 0.9998 0.0094 -0.0197
vn 0.9998 -0.0138 -0.0122
vn -0.9087 -0.1314 -0.3962
vn -0.9101 0.3344 -0.2449
vn -0.9101 0.3344 0.2449
vn -0.9087 -0.1314 0.3962
usemtl Material.001
s off
f 1/1/1 114/2/1 83/3/1
f 2/4/2 84/5/2 86/6/2
f 1/1/3 83/3/3 88/7/3
f 1/1/4 88/7/4 90/8/4
f 1/1/5 90/8/5 117/9/5
f 2/4/6 86/6/6 93/10/6
f 3/11/7 85/12/7 95/13/7
f 4/14/8 89/15/8 97/16/8
f 5/17/9 91/18/9 99/19/9
f 6/20/10 92/21/10 101/22/10
f 2/4/11 93/10/11 126/23/11
f 3/11/12 95/13/12 128/24/12
f 4/14/13 97/16/13 130/25/13
f 5/17/14 99/19/14 132/26/14
f 6/20/15 101/22/15 124/27/15
f 7/28/16 103/29/16 108/30/16
f 8/31/17 104/32/17 110/33/17
f 9/34/18 105/35/18 111/36/18
f 10/37/19 106/38/19 112/39/19
f 11/40/20 107/41/20 139/42/20
f 39/43/21 143/44/21 109/45/21
f 39/43/22 144/46/22 143/44/22
f 37/47/23 137/48/23 145/49/23
f 42/50/24 146/51/24 142/52/24
f 42/50/25 147/53/25 146/51/25
f 36/54/26 136/55/26 148/56/26
f 41/57/27 149/58/27 141/59/27
f 41/57/28 150/60/28 149/58/28
f 35/61/29 135/62/29 151/63/29
f 40/64/30 152/65/30 140/66/30
f 40/64/31 153/67/31 152/65/31
f 34/68/32 134/69/32 154/70/32
f 38/71/33 155/72/33 138/73/33
f 38/71/34 156/74/34 155/72/34
f 33/75/35 133/76/35 157/77/35
f 24/78/36 158/79/36 94/80/36
f 24/78/37 159/81/37 158/79/37
f 31/82/38 131/83/38 160/84/38
f 32/85/39 161/86/39 102/87/39
f 32/85/40 162/88/40 161/86/40
f 29/89/41 129/90/41 163/91/41
f 30/92/42 164/93/42 100/94/42
f 30/92/43 165/95/43 164/93/43
f 27/96/44 127/97/44 166/98/44
f 28/99/45 167/100/45 98/101/45
f 28/99/46 168/102/46 167/100/46
f 25/103/47 125/104/47 169/105/47
f 26/106/48 170/107/48 96/108/48
f 26/106/49 171/109/49 170/107/49
f 23/110/50 123/111/50 172/112/50
f 31/82/51 173/113/51 131/83/51
f 31/82/52 174/114/52 173/113/52
f 22/115/53 122/116/53 175/117/53
f 29/89/54 176/118/54 129/90/54
f 29/89/55 177/119/55 176/118/55
f 21/120/56 121/121/56 178/122/56
f 27/96/57 179/123/57 127/97/57
f 27/96/58 180/124/58 179/123/58
f 19/125/59 119/126/59 181/127/59
f 25/103/60 182/128/60 125/104/60
f 25/103/61 183/129/61 182/128/61
f 15/130/62 115/131/62 184/132/62
f 23/110/63 185/133/63 123/111/63
f 23/110/64 186/134/64 185/133/64
f 16/135/65 116/136/65 187/137/65
f 17/138/66 188/139/66 87/140/66
f 17/138/67 189/141/67 188/139/67
f 20/142/68 120/143/68 190/144/68
f 20/142/69 191/145/69 120/143/69
f 20/142/70 192/146/70 191/145/70
f 18/147/71 118/148/71 193/149/71
f 18/147/72 194/150/72 118/148/72
f 18/147/73 195/151/73 194/150/73
f 13/152/74 113/153/74 196/154/74
f 16/135/75 197/155/75 116/136/75
f 16/135/76 198/156/76 197/155/76
f 14/157/77 114/2/77 199/158/77
f 13/152/78 200/159/78 113/153/78
f 13/152/79 201/160/79 200/159/79
f 14/157/80 84/5/80 202/161/80
f 202/161/80 115/131/80 15/130/80
f 202/161/80 84/5/80 115/131/80
f 84/5/80 2/4/80 115/131/80
f 200/159/79 202/161/79 15/130/79
f 200/159/79 201/160/79 202/161/79
f 201/160/79 14/157/79 202/161/79
f 113/153/78 85/12/78 3/11/78
f 113/153/78 200/159/78 85/12/78
f 200/159/78 15/130/78 85/12/78
f 199/158/77 117/9/77 17/138/77
f 199/158/77 114/2/77 117/9/77
f 114/2/81 1/1/81 117/9/81
f 197/155/76 199/158/76 17/138/76
f 197/155/76 198/156/76 199/158/76
f 198/156/76 14/157/76 199/158/76
f 116/136/75 87/140/75 6/20/75
f 116/136/75 197/155/75 87/140/75
f 197/155/75 17/138/75 87/140/75
f 196/154/74 119/126/74 19/125/74
f 196/154/74 113/153/74 119/126/74
f 113/153/74 3/11/74 119/126/74
f 194/150/73 196/154/73 19/125/73
f 194/150/73 195/151/73 196/154/73
f 195/151/73 13/152/73 196/154/73
f 118/148/72 89/15/72 4/14/72
f 118/148/72 194/150/72 89/15/72
f 194/150/72 19/125/72 89/15/72
f 193/149/71 121/121/71 21/120/71
f 193/149/71 118/148/71 121/121/71
f 118/148/71 4/14/71 121/121/71
f 191/145/70 193/149/70 21/120/70
f 191/145/70 192/146/70 193/149/70
f 192/146/70 18/147/70 193/149/70
f 120/143/69 91/18/69 5/17/69
f 120/143/69 191/145/69 91/18/69
f 191/145/69 21/120/69 91/18/69
f 190/144/68 122/116/68 22/115/68
f 190/144/68 120/143/68 122/116/68
f 120/143/68 5/17/68 122/116/68
f 188/139/67 190/144/67 22/115/67
f 188/139/67 189/141/67 190/144/67
f 189/141/67 20/142/67 190/144/67
f 87/140/66 92/21/66 6/20/66
f 87/140/66 188/139/66 92/21/66
f 188/139/66 22/115/66 92/21/66
f 187/137/65 124/27/65 24/78/65
f 187/137/65 116/136/65 124/27/65
f 116/136/65 6/20/65 124/27/65
f 185/133/64 187/137/64 24/78/64
f 185/133/64 186/134/64 187/137/64
f 186/134/64 16/135/64 187/137/64
f 123/111/63 94/80/63 11/40/63
f 123/111/63 185/133/63 94/80/63
f 185/133/63 24/78/63 94/80/63
f 184/132/62 126/23/62 26/106/62
f 184/132/62 115/131/62 126/23/62
f 115/131/62 2/4/62 126/23/62
f 182/128/61 184/132/61 26/106/61
f 182/128/61 183/129/61 184/132/61
f 183/129/61 15/130/61 184/132/61
f 125/104/60 96/108/60 7/28/60
f 125/104/60 182/128/60 96/108/60
f 182/128/60 26/106/60 96/108/60
f 181/127/59 128/24/59 28/99/59
f 181/127/59 119/126/59 128/24/59
f 119/126/59 3/11/59 128/24/59
f 179/123/58 181/127/58 28/99/58
f 179/123/58 180/124/58 181/127/58
f 180/124/58 19/125/58 181/127/58
f 127/97/57 98/101/57 8/31/57
f 127/97/57 179/123/57 98/101/57
f 179/123/57 28/99/57 98/101/57
f 178/122/56 130/25/56 30/92/56
f 178/122/56 121/121/56 130/25/56
f 121/121/56 4/14/56 130/25/56
f 176/118/55 178/122/55 30/92/55
f 176/118/55 177/119/55 178/122/55
f 177/119/55 21/120/55 178/122/55
f 129/90/54 100/94/54 9/34/54
f 129/90/54 176/118/54 100/94/54
f 176/118/54 30/92/54 100/94/54
f 175/117/53 132/26/53 32/85/53
f 175/117/53 122/116/53 132/26/53
f 122/116/53 5/17/53 132/26/53
f 173/113/52 175/117/52 32/85/52
f 173/113/52 174/114/52 175/117/52
f 174/114/52 22/115/52 175/117/52
f 131/83/51 102/87/51 10/37/51
f 131/83/51 173/113/51 102/87/51
f 173/113/51 32/85/51 102/87/51
f 172/112/50 133/76/50 33/75/50
f 172/112/50 123/111/50 133/76/50
f 123/111/50 11/40/50 133/76/50
f 170/107/49 172/112/49 33/75/49
f 170/107/49 171/109/49 172/112/49
f 171/109/49 23/110/49 172/112/49
f 96/108/48 103/29/48 7/28/48
f 96/108/48 170/107/48 103/29/48
f 170/107/48 33/75/48 103/29/48
f 169/105/47 134/69/47 34/68/47
f 169/105/47 125/104/47 134/69/47
f 125/104/47 7/28/47 134/69/47
f 167/100/46 169/105/46 34/68/46
f 167/100/46 168/102/46 169/105/46
f 168/102/46 25/103/46 169/105/46
f 98/101/45 104/32/45 8/31/45
f 98/101/45 167/100/45 104/32/45
f 167/100/45 34/68/45 104/32/45
f 166/98/44 135/62/44 35/61/44
f 166/98/44 127/97/44 135/62/44
f 127/97/44 8/31/44 135/62/44
f 164/93/43 166/98/43 35/61/43
f 164/93/43 165/95/43 166/98/43
f 165/95/43 27/96/43 166/98/43
f 100/94/42 105/35/42 9/34/42
f 100/94/42 164/93/42 105/35/42
f 164/93/42 35/61/42 105/35/42
f 163/91/41 136/55/41 36/54/41
f 163/91/41 129/90/41 136/55/41
f 129/90/41 9/34/41 136/55/41
f 161/86/40 163/91/40 36/54/40
f 161/86/40 162/88/40 163/91/40
f 162/88/40 29/89/40 163/91/40
f 102/87/39 106/38/39 10/37/39
f 102/87/39 161/86/39 106/38/39
f 161/86/39 36/54/39 106/38/39
f 160/84/38 137/48/38 37/47/38
f 160/84/38 131/83/38 137/48/38
f 131/83/38 10/37/38 137/48/38
f 158/79/37 160/84/37 37/47/37
f 158/79/37 159/81/37 160/84/37
f 159/81/37 31/82/37 160/84/37
f 94/80/36 107/41/36 11/40/36
f 94/80/36 158/79/36 107/41/36
f 158/79/36 37/47/36 107/41/36
f 157/77/35 139/42/35 39/43/35
f 157/77/35 133/76/35 139/42/35
f 133/76/35 11/40/35 139/42/35
f 155/72/34 157/77/34 39/43/34
f 155/72/34 156/74/34 157/77/34
f 156/74/34 33/75/34 157/77/34
f 138/73/82 109/45/82 12/162/82
f 138/73/33 155/72/33 109/45/33
f 155/72/33 39/43/33 109/45/33
f 154/70/32 108/30/32 38/71/32
f 154/70/32 134/69/32 108/30/32
f 134/69/32 7/28/32 108/30/32
f 152/65/31 154/70/31 38/71/31
f 152/65/31 153/67/31 154/70/31
f 153/67/31 34/68/31 154/70/31
f 140/66/83 138/73/83 12/162/83
f 140/66/30 152/65/30 138/73/30
f 152/65/30 38/71/30 138/73/30
f 151/63/29 110/33/29 40/64/29
f 151/63/29 135/62/29 110/33/29
f 135/62/29 8/31/29 110/33/29
f 149/58/28 151/63/28 40/64/28
f 149/58/28 150/60/28 151/63/28
f 150/60/28 35/61/28 151/63/28
f 141/59/84 140/66/84 12/162/84
f 141/59/27 149/58/27 140/66/27
f 149/58/27 40/64/27 140/66/27
f 148/56/26 111/36/26 41/57/26
f 148/56/26 136/55/26 111/36/26
f 136/55/26 9/34/26 111/36/26
f 146/51/25 148/56/25 41/57/25
f 146/51/25 147/53/25 148/56/25
f 147/53/25 36/54/25 148/56/25
f 142/52/85 141/59/85 12/162/85
f 142/52/24 146/51/24 141/59/24
f 146/51/24 41/57/24 141/59/24
f 145/49/23 112/39/23 42/50/23
f 145/49/23 137/48/23 112/39/23
f 137/48/23 10/37/23 112/39/23
f 143/44/22 145/49/22 42/50/22
f 143/44/22 144/46/22 145/49/22
f 144/46/22 37/47/22 145/49/22
f 109/45/86 142/52/86 12/162/86
f 109/45/21 143/44/21 142/52/21
f 143/44/21 42/50/21 142/52/21
f 139/42/20 144/46/20 39/43/20
f 139/42/20 107/41/20 144/46/20
f 107/41/20 37/47/20 144/46/20
f 112/39/19 147/53/19 42/50/19
f 112/39/19 106/38/19 147/53/19
f 106/38/19 36/54/19 147/53/19
f 111/36/18 150/60/18 41/57/18
f 111/36/18 105/35/18 150/60/18
f 105/35/18 35/61/18 150/60/18
f 110/33/17 153/67/17 40/64/17
f 110/33/17 104/32/17 153/67/17
f 104/32/17 34/68/17 153/67/17
f 108/30/16 156/74/16 38/71/16
f 108/30/16 103/29/16 156/74/16
f 103/29/16 33/75/16 156/74/16
f 124/27/15 159/81/15 24/78/15
f 124/27/15 101/22/15 159/81/15
f 101/22/15 31/82/15 159/81/15
f 132/26/14 162/88/14 32/85/14
f 132/26/14 99/19/14 162/88/14
f 99/19/14 29/89/14 162/88/14
f 130/25/13 165/95/13 30/92/13
f 130/25/13 97/16/13 165/95/13
f 97/16/13 27/96/13 165/95/13
f 128/24/12 168/102/12 28/99/12
f 128/24/12 95/13/12 168/102/12
f 95/13/12 25/103/12 168/102/12
f 126/23/11 171/109/11 26/106/11
f 126/23/11 93/10/11 171/109/11
f 93/10/11 23/110/11 171/109/11
f 101/22/10 174/114/10 31/82/10
f 101/22/10 92/21/10 174/114/10
f 92/21/10 22/115/10 174/114/10
f 99/19/9 177/119/9 29/89/9
f 99/19/9 91/18/9 177/119/9
f 91/18/9 21/120/9 177/119/9
f 97/16/8 180/124/8 27/96/8
f 97/16/8 89/15/8 180/124/8
f 89/15/8 19/125/8 180/124/8
f 95/13/7 183/129/7 25/103/7
f 95/13/7 85/12/7 183/129/7
f 85/12/7 15/130/7 183/129/7
f 93/10/6 186/134/6 23/110/6
f 93/10/6 86/6/6 186/134/6
f 86/6/6 16/135/6 186/134/6
f 117/9/87 189/141/87 17/138/87
f 117/9/87 90/8/87 189/141/87
f 90/8/87 20/142/87 189/141/87
f 90/8/88 192/146/88 20/142/88
f 90/8/88 88/7/88 192/146/88
f 88/7/88 18/147/88 192/146/88
f 88/7/89 195/151/89 18/147/89
f 88/7/89 83/3/89 195/151/89
f 83/3/89 13/152/89 195/151/89
f 86/6/2 198/156/2 16/135/2
f 86/6/2 84/5/2 198/156/2
f 84/5/2 14/157/2 198/156/2
f 83/3/90 201/160/90 13/152/90
f 83/3/90 114/2/90 201/160/90
f 114/2/90 14/157/90 201/160/90
l 203 43
l 204 44
l 205 45
l 206 46
l 207 47
l 208 48
l 209 49
l 210 50
l 211 51
l 212 52
l 213 53
l 214 54
l 215 55
l 216 56
l 217 57
l 218 58
l 219 59
l 220 60
l 221 61
l 222 62
l 223 63
l 224 64
l 225 65
l 226 66
l 227 67
l 228 68
l 229 69
l 230 70
l 231 71
l 232 72
l 233 73
l 234 74
l 235 75
l 236 76
l 237 77
l 238 78
l 239 79
l 240 80
l 241 81
l 242 82
l 2 203
l 3 204
l 4 205
l 5 206
l 6 207
l 7 208
l 8 209
l 9 210
l 10 211
l 11 212
l 13 213
l 14 214
l 15 215
l 16 216
l 17 217
l 18 218
l 19 219
l 20 220
l 21 221
l 22 222
l 23 223
l 24 224
l 25 225
l 26 226
l 27 227
l 28 228
l 29 229
l 30 230
l 31 231
l 32 232
l 33 233
l 34 234
l 35 235
l 36 236
l 37 237
l 38 238
l 39 239
l 40 240
l 41 241
l 42 242
